<?xml version="1.0" standalone="no"?>
<!DOCTYPE svg PUBLIC "-//W3C//DTD SVG 20010904//EN"
 "http://www.w3.org/TR/2001/REC-SVG-20010904/DTD/svg10.dtd">
<svg version="1.0" xmlns="http://www.w3.org/2000/svg"
 width="969.000000pt" height="969.000000pt" viewBox="0 0 969.000000 969.000000"
 preserveAspectRatio="xMidYMid meet">
<metadata>
Created by potrace 1.14, written by Peter Selinger 2001-2017
</metadata>
<g transform="translate(0.000000,969.000000) scale(0.100000,-0.100000)"
fill="#000000" stroke="none">
<path d="M3498 7279 c-8 -5 -10 -276 -6 -875 2 -478 2 -885 -2 -904 -4 -31 -9
-22 -37 80 -18 63 -39 143 -47 178 -8 35 -21 73 -29 85 -7 12 -26 63 -41 112
-16 50 -43 123 -62 164 -29 63 -36 72 -49 61 -8 -7 -15 -18 -15 -25 0 -14 165
-556 479 -1570 109 -352 222 -734 251 -850 50 -201 81 -338 77 -342 -5 -4
-103 -7 -208 -5 l-117 2 -6 28 c-15 58 -890 2781 -915 2844 -10 27 -50 46 -70
33 -6 -3 -11 -23 -11 -44 0 -31 78 -317 194 -710 13 -46 22 -89 20 -96 -3 -7
-1 -16 5 -20 6 -3 11 -16 11 -28 0 -28 35 -98 54 -109 7 -4 17 -29 21 -55 4
-26 18 -79 32 -117 32 -87 55 -185 48 -197 -4 -5 3 -29 14 -53 10 -25 17 -47
14 -50 -3 -3 -1 -12 5 -19 14 -17 255 -745 256 -774 1 -12 4 -25 9 -29 4 -4 7
-17 7 -29 0 -27 36 -97 55 -108 8 -4 15 -14 15 -21 0 -8 9 -33 20 -57 18 -41
20 -67 20 -379 0 -288 2 -339 16 -358 14 -20 14 -23 -1 -28 -8 -4 -293 -4
-633 -1 -560 5 -626 7 -717 25 -274 54 -485 140 -698 284 -174 118 -260 204
-450 447 -51 64 -109 171 -113 209 -3 20 -16 55 -29 77 -33 58 -88 254 -122
436 -26 145 -28 170 -28 429 l0 275 37 152 c42 171 68 244 140 385 253 497
670 812 1220 922 115 23 151 25 563 32 376 6 444 9 468 23 l27 15 -2 276 -3
275 -485 -1 c-531 -1 -571 -4 -820 -65 -168 -41 -202 -52 -364 -121 -248 -105
-377 -182 -572 -338 -212 -169 -310 -275 -461 -498 -29 -42 -65 -91 -82 -109
-16 -17 -56 -87 -89 -155 -111 -226 -187 -462 -227 -704 -26 -152 -27 -170
-22 -434 7 -360 34 -532 128 -817 123 -370 399 -786 677 -1021 361 -305 759
-484 1257 -567 l150 -25 947 0 947 0 -6 748 c-3 411 -3 760 1 775 6 27 7 27
32 11 13 -9 27 -14 30 -11 11 11 -28 169 -96 391 -30 99 -41 150 -37 177 3 20
25 88 51 151 25 62 86 224 135 360 50 135 145 387 212 560 154 397 199 525
199 565 0 38 -16 51 -37 31 -8 -9 -73 -176 -144 -373 -124 -342 -177 -471
-206 -506 -7 -9 -31 -68 -52 -132 -22 -64 -46 -126 -54 -137 -14 -20 -15 -14
-21 72 -3 51 -8 491 -11 978 -3 487 -8 956 -11 1042 l-7 157 -309 3 c-171 2
-315 0 -320 -3z"/>
<path d="M5486 7273 c-8 -8 -5 -1037 5 -1718 6 -439 3 -633 -9 -620 -7 7 -44
124 -83 260 -17 61 -39 119 -49 130 -9 11 -27 54 -39 95 -12 41 -50 136 -85
210 -35 74 -79 177 -98 229 -37 105 -117 262 -135 269 -43 13 -19 -54 439
-1233 116 -297 232 -596 258 -665 46 -121 48 -125 81 -132 19 -3 34 -6 35 -5
0 1 51 169 113 372 63 204 188 611 278 905 91 294 178 580 194 635 16 55 36
121 44 146 19 60 19 98 0 106 -25 9 -52 -25 -65 -80 -7 -29 -28 -94 -47 -145
-19 -52 -43 -135 -53 -185 -10 -51 -33 -132 -50 -182 -17 -49 -39 -126 -49
-169 -9 -44 -23 -82 -29 -84 -10 -3 -11 105 -6 485 6 451 -8 1267 -22 1351
l-6 32 -307 0 c-169 0 -311 -3 -315 -7z"/>
<path d="M6505 7147 c-8 -163 3 -433 19 -446 6 -5 166 -12 356 -15 325 -7 346
-8 359 -27 15 -21 32 -25 28 -6 -3 15 54 15 209 -1 321 -32 744 -251 968 -500
242 -269 390 -563 454 -897 24 -128 24 -561 0 -690 -9 -49 -24 -139 -33 -198
-19 -134 -49 -226 -125 -384 -67 -140 -89 -174 -216 -333 -247 -313 -602 -523
-1010 -600 l-168 -31 -602 -6 c-331 -4 -609 -3 -619 1 -17 6 -16 8 5 31 18 19
34 25 67 25 24 0 43 5 43 10 0 6 -15 10 -34 10 -22 0 -36 6 -40 16 -10 25 -7
126 5 164 6 19 15 64 20 100 27 170 35 207 59 265 7 17 27 80 45 140 18 61 37
121 43 135 5 14 17 52 27 85 9 33 21 69 25 80 5 11 23 67 40 125 41 137 60
197 75 240 7 19 19 58 25 85 7 28 19 60 26 72 8 12 14 30 14 40 0 19 24 98 45
148 12 30 31 97 41 145 3 14 9 34 14 45 5 11 16 45 25 75 9 30 23 68 31 83 8
16 14 36 14 45 0 19 25 101 45 147 13 29 19 54 32 120 3 17 9 35 13 40 4 6 17
44 29 85 12 41 29 90 37 108 8 18 14 41 14 52 0 10 14 59 30 108 17 50 30 96
30 103 0 7 10 23 21 36 13 13 25 44 30 74 5 28 15 59 23 68 21 23 76 167 76
197 l0 26 -44 -26 c-49 -29 -79 -32 -138 -14 -71 21 -16 174 -583 -1632 -163
-520 -320 -1019 -349 -1110 l-52 -165 -134 -3 c-213 -5 -174 -47 -324 346
-261 678 -667 1717 -675 1725 -11 11 -78 -149 -189 -453 -50 -135 -145 -391
-213 -570 -67 -179 -137 -368 -156 -420 l-32 -95 23 -3 c17 -2 40 13 89 62 36
37 69 66 75 66 15 0 22 -99 13 -166 -5 -34 -18 -79 -30 -102 -27 -52 -27 -54
7 -50 20 2 27 8 25 23 -1 10 7 25 18 33 11 8 18 20 15 27 -3 8 2 19 9 25 10 8
14 29 13 64 -1 36 6 69 26 116 32 78 49 135 75 255 19 88 59 192 140 369 37
79 62 115 82 116 8 0 42 -89 42 -110 0 -8 5 -18 10 -22 6 -3 11 -21 12 -40 4
-69 27 -194 41 -215 8 -13 32 -83 55 -155 73 -244 174 -498 196 -498 4 0 15 5
23 10 13 9 12 13 -7 29 -12 10 -19 21 -16 25 3 3 -5 17 -19 31 -36 36 -45 75
-21 93 17 13 17 14 -2 29 -14 11 -16 17 -7 20 21 8 13 23 -13 23 -19 0 -25 5
-25 23 0 12 -6 33 -13 47 -11 21 -11 27 2 36 8 6 11 16 7 23 -6 9 -11 9 -23
-1 -12 -10 -18 -9 -29 7 -16 22 -14 37 6 43 7 3 10 0 6 -7 -4 -6 -1 -11 8 -11
22 0 20 7 -9 42 -14 16 -25 36 -25 44 0 8 -5 14 -10 14 -6 0 -9 3 -8 8 1 4 -3
17 -10 28 -6 12 -9 24 -5 27 3 4 -2 17 -10 31 -16 23 -17 92 -3 115 4 5 2 12
-4 16 -6 4 -8 27 -4 59 4 35 3 56 -5 60 -16 10 5 46 28 46 10 0 25 -8 34 -17
8 -10 59 -130 112 -268 135 -350 216 -546 236 -575 10 -14 40 -83 66 -155 55
-151 50 -99 61 -755 l7 -435 1020 0 1020 0 105 27 c427 109 805 284 1070 497
248 198 479 490 629 794 85 170 121 268 166 443 55 211 74 372 81 687 8 324 6
344 -76 652 -51 195 -172 495 -199 495 -5 0 -28 35 -51 78 -96 179 -258 392
-396 522 -83 77 -299 247 -352 275 -20 11 -77 42 -125 69 -94 52 -264 129
-387 176 -98 38 -248 75 -429 107 -138 24 -172 25 -602 30 l-456 6 -8 -136z"/>
</g>
</svg>
